<svg width="19" height="18" viewBox="0 0 19 18" fill="none" xmlns="http://www.w3.org/2000/svg">
<path d="M9.03937 5.8295L9.71429 6.8901L10.3892 5.8295C11.0291 4.82394 12.1614 4.175 13.4643 4.175C15.4975 4.175 17.1643 5.84183 17.1643 7.875C17.1643 8.7593 16.7547 9.7185 16.0301 10.7066C15.3116 11.6864 14.3362 12.6223 13.3327 13.4433C12.3332 14.2611 11.3297 14.9457 10.5739 15.4266C10.225 15.6486 9.93056 15.8262 9.71578 15.9525C9.50083 15.8252 9.20596 15.6462 8.85655 15.4225C8.10047 14.9385 7.09661 14.2503 6.09673 13.43C5.09288 12.6064 4.11696 11.6689 3.3981 10.6903C2.67269 9.70271 2.26429 8.74861 2.26429 7.875C2.26429 5.84183 3.93112 4.175 5.96429 4.175C7.26718 4.175 8.39946 4.82394 9.03937 5.8295Z" stroke="#A0A3BD" stroke-width="1.6"/>
</svg>
