<svg width="19" height="18" viewBox="0 0 19 18" fill="none" xmlns="http://www.w3.org/2000/svg">
<path d="M8.9643 5.2875V3C8.9643 2.80109 8.88528 2.61032 8.74463 2.46967C8.60398 2.32902 8.41321 2.25 8.2143 2.25C8.01755 2.25083 7.829 2.32894 7.6893 2.4675L2.4393 7.7175C2.36901 7.78722 2.31321 7.87017 2.27513 7.96157C2.23706 8.05296 2.21745 8.15099 2.21745 8.25C2.21745 8.34901 2.23706 8.44704 2.27513 8.53843C2.31321 8.62983 2.36901 8.71278 2.4393 8.7825L7.6893 14.0325C7.79459 14.1357 7.92796 14.2056 8.07274 14.2334C8.21753 14.2612 8.3673 14.2458 8.50335 14.189C8.63939 14.1321 8.75567 14.0365 8.83766 13.914C8.91964 13.7914 8.96369 13.6474 8.9643 13.5V11.175H9.6018C10.7867 11.1573 11.9613 11.3977 13.0441 11.8795C14.1268 12.3613 15.0917 13.0729 15.8718 13.965C15.9658 14.0902 16.0966 14.1828 16.2459 14.2298C16.3952 14.2769 16.5555 14.2761 16.7043 14.2275C16.8557 14.1764 16.9869 14.0783 17.0786 13.9474C17.1704 13.8165 17.2179 13.6598 17.2143 13.5C17.2143 6.66 11.1543 5.49 8.9643 5.2875ZM9.6018 9.66C9.10017 9.65843 8.59901 9.69101 8.1018 9.7575C7.92425 9.78444 7.76225 9.87419 7.64526 10.0104C7.52828 10.1467 7.46407 10.3204 7.4643 10.5V11.6925L4.0293 8.25L7.4643 4.8075V6C7.4643 6.19891 7.54332 6.38968 7.68397 6.53033C7.82462 6.67098 8.01539 6.75 8.2143 6.75C8.8968 6.75 14.2968 6.9 15.4668 11.5725C13.7686 10.3204 11.7117 9.64969 9.6018 9.66Z" fill="#A0A3BD"/>
</svg>
